<svg xmlns="http://www.w3.org/2000/svg" xmlns:xlink="http://www.w3.org/1999/xlink" version="1.1" width="144"
	height="144" viewBox="0 0 1000 1000" xml:space="preserve">
	<desc>Created with Fabric.js 3.5.0</desc>
	<defs>
	</defs>
	<rect x="0" y="0" width="100%" height="100%" fill="#ffffff" />
	<g transform="matrix(1.781 0 0 1.781 117.7808 117.5066)" id="43153">
		<g style="" vector-effect="non-scaling-stroke">
			<g transform="matrix(0.912 0 0 0.912 0.6052 -0.6326)" id="SvgjsG1974">
				<path
					style="stroke: none; stroke-width: 1; stroke-dasharray: none; stroke-linecap: butt; stroke-dashoffset: 0; stroke-linejoin: miter; stroke-miterlimit: 4; is-custom-font: none; font-file-url: none; fill: rgb(0,198,207); fill-rule: nonzero; opacity: 1;"
					transform=" translate(-50, -50)"
					d="M 50 93.166 C 26.198 93.166 6.834 73.802 6.834 50 S 26.198 6.834 50 6.834 S 93.166 26.198 93.166 50 S 73.802 93.166 50 93.166 z M 50 8.834 C 27.301 8.834 8.834 27.301 8.834 50 S 27.301 91.166 50 91.166 S 91.166 72.699 91.166 50 S 72.699 8.834 50 8.834 z"
					stroke-linecap="round" />
			</g>
			<g transform="matrix(0.912 0 0 0.912 10.4176 -12.0407)" id="SvgjsG1974">
				<path
					style="stroke: none; stroke-width: 1; stroke-dasharray: none; stroke-linecap: butt; stroke-dashoffset: 0; stroke-linejoin: miter; stroke-miterlimit: 4; is-custom-font: none; font-file-url: none; fill: rgb(0,198,207); fill-rule: nonzero; opacity: 1;"
					transform=" translate(-60.76, -37.4915)"
					d="M 44.714 46.55 l -0.107 -0.742 c 18.198 -2.623 28.245 -13.025 31.72 -17.375 l 0.586 0.468 C 73.382 33.32 63.177 43.889 44.714 46.55 z"
					stroke-linecap="round" />
			</g>
			<g transform="matrix(0.912 0 0 0.912 -4.1443 -4.1773)" id="SvgjsG1974">
				<circle
					style="stroke: none; stroke-width: 1; stroke-dasharray: none; stroke-linecap: butt; stroke-dashoffset: 0; stroke-linejoin: miter; stroke-miterlimit: 4; is-custom-font: none; font-file-url: none; fill: rgb(0,198,207); fill-rule: nonzero; opacity: 1;"
					cx="0" cy="0" r="2.82" />
			</g>
			<g transform="matrix(0.912 0 0 0.912 24.7847 -19.9975)" id="SvgjsG1974">
				<circle
					style="stroke: none; stroke-width: 1; stroke-dasharray: none; stroke-linecap: butt; stroke-dashoffset: 0; stroke-linejoin: miter; stroke-miterlimit: 4; is-custom-font: none; font-file-url: none; fill: rgb(0,198,207); fill-rule: nonzero; opacity: 1;"
					cx="0" cy="0" r="2.82" />
			</g>
			<g transform="matrix(0.912 0 0 0.912 -17.1931 15.9841)" id="SvgjsG1974">
				<path
					style="stroke: none; stroke-width: 1; stroke-dasharray: none; stroke-linecap: butt; stroke-dashoffset: 0; stroke-linejoin: miter; stroke-miterlimit: 4; is-custom-font: none; font-file-url: none; fill: rgb(0,198,207); fill-rule: nonzero; opacity: 1;"
					transform=" translate(-30.4847, -68.221)"
					d="M 33.874 80.997 c -3.484 -4.387 -9.012 -13.539 -6.895 -25.552 l 0.738 0.131 c -2.066 11.723 3.338 20.666 6.743 24.954 L 33.874 80.997 z"
					stroke-linecap="round" />
			</g>
			<g transform="matrix(0.912 0 0 0.912 -20.0566 4.5221)" id="SvgjsG1974">
				<circle
					style="stroke: none; stroke-width: 1; stroke-dasharray: none; stroke-linecap: butt; stroke-dashoffset: 0; stroke-linejoin: miter; stroke-miterlimit: 4; is-custom-font: none; font-file-url: none; fill: rgb(0,198,207); fill-rule: nonzero; opacity: 1;"
					cx="0" cy="0" r="2.82" />
			</g>
			<g transform="matrix(0.912 0 0 0.912 -13.9144 27.318)" id="SvgjsG1974">
				<circle
					style="stroke: none; stroke-width: 1; stroke-dasharray: none; stroke-linecap: butt; stroke-dashoffset: 0; stroke-linejoin: miter; stroke-miterlimit: 4; is-custom-font: none; font-file-url: none; fill: rgb(0,198,207); fill-rule: nonzero; opacity: 1;"
					cx="0" cy="0" r="2.82" />
			</g>
			<g transform="matrix(0.912 0 0 0.912 9.3806 -10.0726)" id="SvgjsG1974">
				<path
					style="stroke: none; stroke-width: 1; stroke-dasharray: none; stroke-linecap: butt; stroke-dashoffset: 0; stroke-linejoin: miter; stroke-miterlimit: 4; is-custom-font: none; font-file-url: none; fill: rgb(0,198,207); fill-rule: nonzero; opacity: 1;"
					transform=" translate(-59.6228, -39.6494)"
					d="M 78.553 58.284 l -0.75 -0.021 c 0.262 -9.375 -3.322 -18.348 -10.093 -25.265 c -7.05 -7.204 -16.891 -11.292 -27.026 -11.233 l -0.005 -0.75 c 10.321 -0.04 20.376 4.11 27.567 11.458 C 75.16 39.537 78.82 48.704 78.553 58.284 z"
					stroke-linecap="round" />
			</g>
			<g transform="matrix(0.912 0 0 0.912 26.2566 6.782)" id="SvgjsG1974">
				<circle
					style="stroke: none; stroke-width: 1; stroke-dasharray: none; stroke-linecap: butt; stroke-dashoffset: 0; stroke-linejoin: miter; stroke-miterlimit: 4; is-custom-font: none; font-file-url: none; fill: rgb(0,198,207); fill-rule: nonzero; opacity: 1;"
					cx="0" cy="0" r="2.82" />
			</g>
			<g transform="matrix(0.912 0 0 0.912 -7.7685 -26.6777)" id="SvgjsG1974">
				<circle
					style="stroke: none; stroke-width: 1; stroke-dasharray: none; stroke-linecap: butt; stroke-dashoffset: 0; stroke-linejoin: miter; stroke-miterlimit: 4; is-custom-font: none; font-file-url: none; fill: rgb(0,198,207); fill-rule: nonzero; opacity: 1;"
					cx="0" cy="0" r="2.82" />
			</g>
			<g transform="matrix(0.912 0 0 0.912 -16.8708 -1.3406)" id="SvgjsG1974">
				<path
					style="stroke: none; stroke-width: 1; stroke-dasharray: none; stroke-linecap: butt; stroke-dashoffset: 0; stroke-linejoin: miter; stroke-miterlimit: 4; is-custom-font: none; font-file-url: none; fill: rgb(0,198,207); fill-rule: nonzero; opacity: 1;"
					transform=" translate(-30.8377, -49.2239)"
					d="M 55.399 79.061 c -22.622 -1.116 -37.959 -15.928 -44.77 -29.418 c -5.007 -9.918 -5.79 -19.582 -2.043 -25.222 c 2.418 -3.64 6.575 -5.361 12.009 -4.983 l -0.052 0.748 c -5.164 -0.361 -9.073 1.249 -11.333 4.65 c -3.598 5.416 -2.798 14.791 2.088 24.469 c 6.715 13.302 21.837 27.906 44.138 29.006 L 55.399 79.061 z"
					stroke-linecap="round" />
			</g>
			<g transform="matrix(0.912 0 0 0.912 5.4169 25.4831)" id="SvgjsG1974">
				<circle
					style="stroke: none; stroke-width: 1; stroke-dasharray: none; stroke-linecap: butt; stroke-dashoffset: 0; stroke-linejoin: miter; stroke-miterlimit: 4; is-custom-font: none; font-file-url: none; fill: rgb(0,198,207); fill-rule: nonzero; opacity: 1;"
					cx="0" cy="0" r="2.82" />
			</g>
			<g transform="matrix(0.912 0 0 0.912 -30.8959 9.6272)" id="SvgjsG1974">
				<path
					style="stroke: none; stroke-width: 1; stroke-dasharray: none; stroke-linecap: butt; stroke-dashoffset: 0; stroke-linejoin: miter; stroke-miterlimit: 4; is-custom-font: none; font-file-url: none; fill: rgb(0,198,207); fill-rule: nonzero; opacity: 1;"
					transform=" translate(-15.4593, -61.2505)"
					d="M 23.574 83.267 C 13.12 81.553 6.04 74.011 5.536 64.052 c -0.484 -9.58 5.413 -20.969 19.679 -24.818 l 0.195 0.724 C 11.548 43.698 5.816 54.734 6.286 64.014 c 0.386 7.634 5.162 16.505 17.41 18.513 L 23.574 83.267 z"
					stroke-linecap="round" />
			</g>
			<g transform="matrix(0.912 0 0 0.912 -22.0319 -10.0815)" id="SvgjsG1974">
				<circle
					style="stroke: none; stroke-width: 1; stroke-dasharray: none; stroke-linecap: butt; stroke-dashoffset: 0; stroke-linejoin: miter; stroke-miterlimit: 4; is-custom-font: none; font-file-url: none; fill: rgb(0,198,207); fill-rule: nonzero; opacity: 1;"
					cx="0" cy="0" r="2.82" />
			</g>
			<g transform="matrix(0.912 0 0 0.912 17.3439 32.7243)" id="SvgjsG1974">
				<path
					style="stroke: none; stroke-width: 1; stroke-dasharray: none; stroke-linecap: butt; stroke-dashoffset: 0; stroke-linejoin: miter; stroke-miterlimit: 4; is-custom-font: none; font-file-url: none; fill: rgb(0,198,207); fill-rule: nonzero; opacity: 1;"
					transform=" translate(-68.3549, -86.577)"
					d="M 72.426 94.555 c -0.325 0 -0.654 -0.015 -0.988 -0.046 c -6.336 -0.589 -12.075 -6.442 -15.354 -15.658 l 0.707 -0.252 c 3.178 8.934 8.679 14.602 14.716 15.163 c 3.25 0.309 6.127 -1.001 7.521 -3.397 c 1.443 -2.479 1.026 -5.686 -1.145 -8.796 l 0.615 -0.43 c 2.345 3.36 2.773 6.86 1.178 9.603 C 78.278 93.144 75.556 94.555 72.426 94.555 z"
					stroke-linecap="round" />
			</g>
			<g transform="matrix(0.912 0 0 0.912 18.6953 -33.2917)" id="SvgjsG1974">
				<path
					style="stroke: none; stroke-width: 1; stroke-dasharray: none; stroke-linecap: butt; stroke-dashoffset: 0; stroke-linejoin: miter; stroke-miterlimit: 4; is-custom-font: none; font-file-url: none; fill: rgb(0,198,207); fill-rule: nonzero; opacity: 1;"
					transform=" translate(-69.8368, -14.1896)"
					d="M 63.068 18.924 l -0.713 -0.234 c 1.704 -5.167 4.714 -8.496 8.26 -9.131 c 2.183 -0.394 4.329 0.351 5.595 1.938 c 1.251 1.568 1.453 3.679 0.556 5.79 l -0.689 -0.293 c 0.786 -1.85 0.621 -3.683 -0.452 -5.029 c -1.094 -1.371 -2.963 -2.01 -4.877 -1.667 C 67.481 10.882 64.683 14.027 63.068 18.924 z"
					stroke-linecap="round" />
			</g>
			<g transform="matrix(0.912 0 0 0.912 12.2513 -29.1994)" id="SvgjsG1974">
				<circle
					style="stroke: none; stroke-width: 1; stroke-dasharray: none; stroke-linecap: butt; stroke-dashoffset: 0; stroke-linejoin: miter; stroke-miterlimit: 4; is-custom-font: none; font-file-url: none; fill: rgb(0,198,207); fill-rule: nonzero; opacity: 1;"
					cx="0" cy="0" r="2.82" />
			</g>
		</g>
	</g>
</svg>